<?xml version="1.0" encoding="UTF-8" standalone="no"?>
<!DOCTYPE svg PUBLIC "-//W3C//DTD SVG 1.1//EN" "http://www.w3.org/Graphics/SVG/1.1/DTD/svg11.dtd">
<svg width="100%" height="100%" viewBox="0 0 1100 1100" version="1.1" xmlns="http://www.w3.org/2000/svg" xmlns:xlink="http://www.w3.org/1999/xlink" xml:space="preserve" xmlns:serif="http://www.serif.com/" style="fill-rule:evenodd;clip-rule:evenodd;stroke-linejoin:round;stroke-miterlimit:2;">
    <g transform="matrix(1,0,0,1,50,50)">
        <path d="M500,200C665.575,200 800,334.426 800,500C800,665.575 665.575,800 500,800C334.425,800 200,665.575 200,500C200,334.426 334.425,200 500,200ZM525,251.238L525,698.449C623.603,686.131 700,601.917 700,500C700,416.133 648.267,344.253 575,314.561L575,261.465C676.375,293.342 749.999,388.141 749.999,500C749.999,637.978 637.978,749.999 500,749.999C491.57,749.999 483.236,749.581 475,748.762L475,525L301.551,525C310.667,597.948 359.126,658.738 425,685.439L425,738.535C323.625,706.658 250.001,611.859 250.001,500C250.001,370.452 348.751,263.787 475,251.238L475,301.551C384.591,312.846 312.851,384.583 301.551,475L475,475L475,251.238C483.236,250.419 491.57,250.001 500,250.001C508.43,250.001 516.764,250.419 525,251.238Z"/>
    </g>
    <path d="M550,0C853.553,0 1100,246.447 1100,550C1100,853.553 853.553,1100 550,1100C246.447,1100 -0,853.553 -0,550C-0,246.447 246.447,0 550,0ZM550,100C798.362,100 1000,301.638 1000,550C1000,798.362 798.362,1000 550,1000C301.638,1000 100,798.362 100,550C100,301.638 301.638,100 550,100Z"/>
    <g transform="matrix(1,0,0,1,25,0)">
        <rect x="900" y="500" width="100" height="100"/>
    </g>
    <path d="M550,150C770.766,150 950,329.234 950,550C950,770.766 770.766,950 550,950C329.234,950 150,770.766 150,550C150,329.234 329.234,150 550,150ZM550,200C743.17,200 900,356.83 900,550C900,743.17 743.17,900 550,900C356.83,900 200,743.17 200,550C200,356.83 356.83,200 550,200Z"/>
</svg>
